<?xml version="1.0" encoding="UTF-8"?><svg xmlns="http://www.w3.org/2000/svg" viewBox="0 0 575.708 596.404"><g isolation="isolate"><g id="a"><g opacity=".44"><g mix-blend-mode="screen" opacity=".2"><path d="M318.093,374.407c-4.256,3.807-5.822,9.529-9.606,14.026-3.762-4.021-3.689-9.353-7.137-12.787,4.986-10.222,12.353-18.728,20.333-26.726,12.056-12.083,24.142-24.144,36.493-35.935,17.312-16.527,27.093-36.356,28.516-60.096.181-3.011.653-6.006,1.01-9.007.417-3.513,2.265-6.25,5.076-8.3,1.953-1.425,4.209-3.191,6.702-1.964,2.275,1.12,1.322,3.745,1.328,5.713.056,19.033.381,38.074-.08,57.096-.618,25.453-9.054,48.487-23.932,69.288-1.403,1.962-2.714,3.988-4.067,5.984-2.799,2.273-5.399,4.716-7.033,7.979-6.853,5.369-13.034,11.4-18.533,18.104-2.45,1.22-4.278,3.038-5.47,5.471-3.058,1.819-5.572,4.169-7.347,7.242-6.548,4.224-10.727,11.171-17.957,15.61-.385-2.086-.453-3.563-.938-4.894-2.588-7.092-.873-12.718,5.424-17.164,1.653-1.167,2.713-3.143,4.035-4.749,2.721-1.25,4.614-3.343,6.093-5.853,1.783-.656,3.003-1.886,3.782-3.568,10.58-9.225,20.883-18.755,29.471-29.833,14.305-18.453,21.748-39.409,23.146-62.783-1.016.423-1.851.5-2.075.903-10.952,19.722-28.24,34.056-43.829,49.841-5.75,5.822-12.326,10.908-16.8,17.889-2.858,2.269-5.14,4.968-6.478,8.371l-.124.14Z" fill="#6f7958"/><path d="M158.866,230.095c0-3.873-3.183-7.02-7.126-7.045-15.137-.096-30.276-.19-45.415-.279-17.52.115-35.051.688-52.552.204-14.541-.402-27.178-10.57-31.672-23.93-4.641-13.794-.604-28.105,10.679-37.797,7.529-6.466,16.394-9.193,26.298-9.184,24.241.024,48.481.144,72.716-.088,17.292-.166,31.184-13.953,31.407-30.935.131-9.955.078-19.912.086-29.869.021-23.253-.286-13.891.142-37.136.315-17.117,11.887-31.405,28.267-36.391,16.113-4.905,33.145.396,43.729,13.67,8.416,10.555,9.786,22.471,6.836,35.166-.27,1.167-.885,2.253-1.244,3.406-1.793,5.749-.772,9.24,3.108,10.759,3.956,1.55,7.765-.417,9.776-5.779,6.896-18.365,4.73-35.791-7.227-51.459-11.761-15.412-28.068-22.654-47.483-20.837-28.782,2.694-48.672,24.301-49.607,52.715-.289,8.749-.089,17.514-.081,26.271.013,22.65.123,12.678.039,35.327-.058,15.922-7.983,22.818-22.736,22.146-2.762-.125-5.534-.043-8.303-.04-20.912.023-41.826-.045-62.74.103-22.235.158-41.238,14.396-47.184,35.103-6.043,21.046,2.279,42.511,20.993,54.461,9.067,5.79,19.058,8.174,29.732,8.25,21.825.155,43.653.284,65.481.423,8.988-.059,17.976-.131,26.963-.195,3.941-.028,7.119-3.171,7.119-7.041h0Z" fill="#6f7958"/><path d="M454.704,236.964c20.308,0,40.613.006,60.919-.002,12.328-.005,23.694-2.988,33.738-10.294,24.264-17.648,26.506-51.846,6.466-72.457-9.836-10.118-21.762-15.343-36.161-15.258-23.999.142-47.998.095-71.997.02-14.916-.046-21.214-6.276-21.547-21.022-.06-2.718-.034-5.438-.032-8.156.008-29.303.186-25.986-.016-55.288-.207-30.303-27.49-54.409-57.501-52.144-29.246,2.206-54.773,27.802-49.554,62.071.633,4.153,1.727,8.314,3.809,12.064,2.305,4.153,5.581,5.596,9.007,4.063,3.704-1.656,4.536-4.713,3.683-8.309-.698-2.931-1.782-5.776-2.439-8.714-5.316-23.845,12.965-46.879,37.749-47.631,22.82-.693,41.582,16.555,41.829,39.275.349,32.02.121,31.424.121,63.447,0,3.627-.139,7.255.788,10.813,3.491,13.384,15.215,22.518,29.782,22.617,24.303.166,48.612.068,72.918.01,11.629-.028,21.836,3.363,29.766,11.969,10.07,10.929,12.215,23.649,6.71,37.072-5.526,13.479-16.249,21.272-31.155,21.865-15.357.61-30.761.189-46.144.202-15.622.013-31.244.018-46.865.027-3.911.002-7.072,3.133-7.041,6.974h0c.03,3.8,3.176,6.865,7.046,6.865,8.708,0,17.416.001,26.122.001v-.078Z" fill="#6f7958"/><path d="M185.729,193.976c-40.311-.107-80.623.037-120.934.063-2.767.002-5.544.043-8.298-.167-3.99-.304-6.277-2.682-6.292-6.494-.016-3.886,2.515-6.058,6.366-6.479,2.436-.266,4.914-.211,7.374-.209,22.156.015,44.309.051,66.465.08,36.329.046,62.41-25.218,62.578-60.854.142-29.912.029-27.204.06-57.116.003-3.016-.126-6.089.394-9.036.932-5.288,5.192-8.637,10.293-8.615,4.757.02,8.453,2.991,9.836,7.992.239.862.105,1.82.312,2.694,1.229,5.158,3.93,7.572,7.846,7.087,4.258-.529,6.568-4.157,6.117-9.607-1.389-16.745-20.744-26.989-35.767-18.887-9.403,5.07-12.713,13.211-12.661,23.415.16,30.212.032,27.805.076,58.018.008,4.853-.079,9.706-1.16,14.428-4.329,18.854-16.21,30.844-35.132,35.677-5.261,1.344-10.997,1.165-16.517,1.207-23.077.171-46.16-.043-69.235.299-12.892.191-21.324,8.746-21.077,20.373.239,11.204,8.597,19.008,21.082,19.563,3.379.15,6.773-.066,10.154.038,7.369.227,14.761-.527,22.106.54,21.487-1.247,42.989-.256,64.483-.496,11.674-.13,23.379-.298,35.024.35,7.545.42,14.365,2.763,20.09,6.487h19.741c-10.075-12.308-25.7-20.303-43.325-20.35Z" fill="#6f7958"/><path d="M389.559,207.597c20.927-.088,41.852-.022,62.78-.022v-.047c20.62,0,41.238.006,61.858-.007,3.376-.002,6.744.112,10.086-.75,11.419-2.94,17.89-14.296,14.359-25.363-2.99-9.361-10.277-14.117-22.127-14.149-23.083-.062-46.163-.003-69.245-.019-5.539-.004-11.062-.122-16.457-1.673-21.111-6.064-34.326-23.646-34.381-46.181-.079-32.031.121-31.442-.034-63.472-.081-16.371-13.656-26.95-29.706-23.594-10.393,2.173-18.507,11.862-18.497,22.086.008,5.01,2.339,8.359,6.29,8.477,4.4.131,6.794-2.209,7.222-6.531.118-1.195.347-2.407.73-3.544,1.677-4.977,5.376-7.716,10.18-7.642,4.712.071,8.715,3.056,9.918,8.001.63,2.594.538,5.389.541,8.095.029,30.823.026,29.025,0,59.848-.005,4.24.163,8.437,1.116,12.605,6.34,27.742,29.9,46.696,58.931,46.964,23.08.213,46.163.041,69.243.058,2.46.002,4.964-.137,7.369.25,3.791.61,6.145,2.916,5.872,6.851-.236,3.427-2.428,5.556-5.914,5.896-3.05.298-6.145.226-9.222.227-39.393.017-78.782.067-118.175-.021-6.862-.015-13.467,1.023-19.946,3.085-10.739,3.419-19.736,9.996-26.217,18.356l18.822.106c6.77-5.169,14.976-7.851,24.605-7.891Z" fill="#6f7958"/><path d="M539.587,54.679c-12.742,3.527-19.61,16.304-15.231,28.579,2.055,5.764,5.962,9.818,12.241,11.146,2.953.625,5.639-.144,7.093-2.913,1.347-2.56,1.273-5.299-.591-7.674-.725-.926-1.919-1.482-2.812-2.3-5.502-5.034-4.003-11.327,3.221-13.613,7.941-2.512,16.851,3.224,18.457,11.88,2.77,14.939-9.697,27.039-24.912,24.258-10.527-1.924-16.759-8.533-19.917-18.04-5.752-17.317-23.518-28.443-42.986-28.154-11.091.026-21.169,3.079-30.031,9.746-3.011,2.264-5.439,4.87-5.686,8.868-.234,3.798.205,7.716,3.799,9.563,4.132,2.124,4.812-2.663,6.61-4.552,15.509-16.287,49.027-12.703,55.597,9.937,1.612,5.549,4.707,10.511,8.789,14.72,10.235,10.55,22.833,13.674,37.056,10.645,13.824-2.943,21.431-12.058,24.563-25.163.987-4.137,1.013-8.396.633-12.615-1.559-17.291-18.909-29.021-35.893-24.318Z" fill="#6f7958"/><path d="M5.582,64.165c-7.277,12.072-7.314,24.769-.845,37.059,6.061,11.511,16.488,16.544,34.331,16.66,6.61.131,16.257-3.845,23.944-12.085,4.195-4.496,6.917-9.909,9.004-15.646,3.911-10.765,12.191-16.367,23.261-18.132,13.385-2.134,24.87,1.339,33.78,11.888,3.124,3.698,4.935,3.352,7.251-.852,2.664-4.841,1.814-9.627-2.641-13.902-4.263-4.089-9.563-6.442-15.045-8.531-19.15-7.303-50.589-1.431-59.947,25.665-1.071,3.095-2.664,6.152-4.628,8.786-6.177,8.283-17.42,11.505-27.152,8.123-8.671-3.013-13.59-11.287-12.918-21.716.436-6.702,4.014-11.315,10.414-13.416,5.227-1.716,10.85-.336,13.283,3.26,2.473,3.653,1.767,6.158-3.491,11.23-2.691,2.597-3.953,5.374-1.953,8.845,1.796,3.113,5.623,4.119,9.752,2.254,6.4-2.89,9.702-8.125,10.6-14.851,1.431-10.741-4.148-19.661-14.556-23.455-10.731-3.912-27.322.32-32.444,8.816Z" fill="#6f7958"/><path d="M280.259,103.776c-3.331-4.149-6.237-8.202-9.592-11.858-5.739-6.255-10.999-7.034-20.035-2.989,2.893,2.765,5.166,4.903,7.4,7.081,11.642,11.354,19.224,24.928,22.358,40.721,1.578,7.945,1.712,16.089,1.675,24.179-.016,3.636,1.168,5.127,5.066,5.059,6.153-.107,6.495-.218,6.6-6.638.039-2.35.053-4.699.084-7.048.299-22.832,8.852-42.137,25.666-57.91,1.152-1.082,2.402-2.064,3.536-3.163,1.99-1.93,1.011-3.416-1.092-4.054-6.098-1.85-11.669-.724-16.042,3.959-2.864,3.067-5.232,6.575-7.941,9.792-1.032,1.226-1.26,3.716-4.224,2.784v-10.111c.005-9.921.032-19.843-.011-29.764-.005-1.754.664-4.236-1.41-4.884-2.73-.853-5.896-1.007-8.61.059-2.478.974-1.509,3.648-1.525,5.598-.089,10.702.003,21.405-.076,32.107-.018,2.35.895,5.08-1.827,7.08Z" fill="#6f7958"/><path d="M270.788,160.359c.677-11.733-4.686-20.435-15.273-25.72-3.397-1.695-4.822-3.327-3.092-6.895.654-1.348,1.113-2.832,1.391-4.303,2.993-15.778-9.75-29.638-25.416-27.633-6.135.786-11.057,3.689-14.236,8.95-1.688,2.795-1.701,5.874.664,8.398,1.733,1.851,4.069,2.968,6.644,1.804,1.628-.736,3.195-1.84,4.442-3.107,3.058-3.102,6.313-3.406,9.931-1.185,3.814,2.342,5.366,6.569,4.087,10.998-1.659,5.752-6.253,9.564-12.761,10.081-3.972.315-7.991.06-11.989.089-7.314.053-7.371.046-9.177,6.867-3.56,13.447-10.007,25.239-20.303,34.917-1.481,1.392-3.536,2.469-3.911,5.451,3.594.254,7.253.035,10.647.864,5.124,1.252,7.949-1.047,10.731-4.74,5.904-7.834,10.779-16.19,13.806-25.459,1.152-3.523,3.085-4.76,6.684-4.649,5.838.182,11.703-.227,17.525.13,7.605.465,13.8,5.063,15.549,10.9,1.738,5.799-3.2,12.292-9.012,11.866-3.071-.226-4.699-2.565-6.802-4.292-2.938-2.411-6.124-2.785-9.096.025-2.914,2.757-2.672,5.894-.727,9.045,1.457,2.36,3.505,4.195,5.859,5.685,13.624,8.619,32.885-1.573,33.835-18.087Z" fill="#6f7958"/><path d="M350.815,112.821c3.297,2.561,6.455,3.523,9.918.674,3.09-2.543,3.056-6.582-.102-10.504-3.4-4.225-7.912-6.576-13.37-7.188-15.462-1.734-28.202,11.331-24.765,26.918,1.62,7.347.696,10.679-6.098,14.573-9.243,5.297-12.417,14.657-10.915,25.108,1.281,8.907,6.77,14.697,15.168,17.8,9.156,3.384,20.053-.175,24.293-7.699,2.184-3.88,1.659-7.521-1.575-9.581-3.877-2.472-6.726-.614-9.776,2.022-4.562,3.944-7.563,3.949-11.296.861-3.809-3.152-4.62-7.746-2-12.247,3.187-5.48,8.395-7.915,14.506-8.285,5.823-.353,11.69.053,17.52-.224,3.738-.177,5.581,1.37,6.639,4.711,2.294,7.252,6.148,13.761,10.088,20.266,4.408,7.281,9.542,12.39,19.111,9.48,1.698-.516,3.631-.283,5.455-.396.318-.526.635-1.052.953-1.578-13.619-11.12-21.718-25.368-25.524-41.972-.701-3.049-2.436-3.747-5.208-3.705-4.919.073-9.852.185-14.758-.084-6.455-.354-11.217-4.115-13.102-9.705-1.297-3.837-.415-7.188,2.263-10.058,3.51-3.764,6.873-3.618,12.577.813Z" fill="#6f7958"/><path d="M467.123.811c-2.457-1.768-5.36-.196-7.841.922-3.176,1.433-5.539,3.791-6.694,7.108-.992,2.849-1.651,5.824-2.827,8.593-2.394,5.632-1.507,12.679-7.657,16.746-1.507.998-.328,2.786.142,4.141.879,2.537,1.882,5.033,2.985,7.948,24.542-5.76,48.011-7.09,69.875,6.787,3.003,1.908,4.715.351,6.122-1.602,1.717-2.385,6.789-4.216,3.418-7.882-2.793-3.037-1.528-5.475-.764-8.197,1.549-5.518,3.515-10.927,4.914-16.476.551-2.175,2.861-4.622.816-6.742-2.292-2.374-5.153-.224-7.799-.022-2.922.223-4.098,2.152-5.502,4.102-2.368,3.292-3.098,7.166-4.25,10.907-2.258,7.337-2.297,7.324-9.962,5.089-.588-.171-1.171-.387-1.775-.48-4.292-.665-5.521-2.826-4.111-6.954,2.045-5.995,3.846-12.078,5.489-18.191,1.139-4.231-.181-5.611-4.439-4.912-6.946,1.141-10.309,5.8-12.199,12.042-1.467,4.836-1.145,11.296-5.339,13.948-4.426,2.798-10.763.744-16.252,1.129-.551.039-1.137-.364-1.916-.635.785-6.906,4.006-13.199,5.523-19.927.567-2.503,2.961-5.346.045-7.442Z" fill="#6f7958"/><path d="M66.771,33.803c-3.006-3.968-3.145-9.014-4.985-13.439-2.16-5.206-5.815-8.45-11.566-9.104-3.712-.422-4.961.965-3.932,4.721,1.756,6.401,3.825,12.718,5.694,19.09.832,2.836,1.78,5.359-.677,8.393-3.591,4.43,2.326,5.829,3.935,8.557,1.467,2.49,3.568,2.277,6.19.629,19.106-12,39.899-12.551,61.273-8.069,8.219,1.725,9.374,1.183,11.22-6.748.438-1.877.719-3.631-1.286-4.735-3.108-1.709-3.292-4.893-4.166-7.714-1.523-4.9-2.896-9.846-4.457-14.732-1.231-3.849-3.274-7.206-7.195-8.963-2.785-1.248-5.975-2.799-8.624-.529-2.239,1.921.047,4.539.583,6.714,1.152,4.679,2.851,9.225,4.182,13.866.622,2.173,1.99,4.392.336,6.964-4.594,0-9.188-.18-13.758.059-3.507.183-4.914-1.612-5.76-4.507-1.352-4.635-2.578-9.324-4.279-13.837-1.985-5.252-6.051-8.262-11.81-8.722-2.966-.237-4.833.693-3.728,4.192,1.181,3.743,2.16,7.549,3.31,11.301q4.19,13.648-10.498,16.614Z" fill="#6f7958"/><path d="M497.512,108.196c-.003-12.099-10.382-22.569-22.723-22.919-12.792-.363-23.581,9.828-23.889,22.563-.31,12.758,9.947,23.115,23.035,23.269,12.858.151,23.581-10.27,23.576-22.913ZM463.668,108.176c.037-5.565,4.901-10.328,10.521-10.298,5.623.03,10.514,4.896,10.424,10.371-.092,5.591-4.927,10.323-10.527,10.301-5.681-.023-10.453-4.775-10.419-10.375Z" fill="#6f7958"/><path d="M78.647,108.249c.147,13.012,10.437,23.076,23.463,22.951,12.884-.124,22.999-10.418,22.852-23.254-.15-12.887-10.802-23.059-23.723-22.65-12.477.394-22.731,10.811-22.592,22.954ZM112.181,107.906c.239,5.704-4.337,10.633-9.989,10.761-5.665.128-10.755-4.563-10.844-9.995-.089-5.664,4.492-10.568,10.067-10.773,5.689-.209,10.527,4.288,10.766,10.007Z" fill="#6f7958"/><path d="M163.016,404.592c-13.597-17.505-22.854-37.085-27.508-58.189-1.463-6.636-7.966-11.116-14.79-10.184l-.603.082.083.592c3.847,27.375,14.969,53.546,32.165,75.681,7.946,10.229,17.231,19.585,27.601,27.819-10.43,8.274-19.75,17.66-27.711,27.906-3.372,4.34-6.553,8.886-9.452,13.51l-.319.509.519.314c5.873,3.551,13.669,2.009,17.749-3.508.708-.957,1.425-1.904,2.154-2.842,11.791-15.177,26.959-28.378,43.902-38.219,5.434,20.51,6.382,41.361,2.817,61.989l-.101.589,13.21,2.202.102-.59c3.898-22.568,2.844-45.373-3.134-67.782-5.403-20.251-15.08-39.874-27.984-56.747l-.365-.478-.488.359c-5.511,4.067-6.924,11.731-3.217,17.449,6.137,9.462,11.209,19.596,15.081,30.131-4.006,2.225-7.915,4.608-11.634,7.091-10.608-8.044-20.055-17.357-28.078-27.684Z" fill="#6f7958"/><path d="M91.904,336.092l-.605.069.07.594c3.986,33.637,17.221,65.741,38.275,92.843,5.963,7.675,12.606,14.983,19.743,21.72l.439.415,9.286-9.489-.439-.414c-6.642-6.268-12.825-13.07-18.376-20.215-17.065-21.968-28.772-47.856-33.853-74.867-1.273-6.763-7.681-11.443-14.539-10.656Z" fill="#6f7958"/><path d="M63.158,335.998l-.607.06.062.595c4.085,39.882,19.408,77.907,44.311,109.965,7.143,9.194,15.131,17.92,23.742,25.936l.441.412,9.218-9.551-.443-.411c-8.091-7.533-15.595-15.731-22.305-24.368-20.86-26.852-34.728-58.568-40.102-91.721-1.104-6.807-7.404-11.604-14.317-10.917Z" fill="#6f7958"/><path d="M211.01,534.059c-43.834-12.458-82.052-36.39-110.523-69.207-28.405-32.741-46.496-73.61-52.321-118.19-.864-6.597-6.828-11.336-13.562-10.789l-.607.05.05.596c4.189,49.765,22.623,95.625,53.305,132.622,30.543,36.827,72.057,63.503,120.055,77.145,9.22,2.62,19.718,6.712,28.081,10.945,5.064,2.563,8.21,7.607,8.213,13.163v-23.279c-14.21-7.528-28.564-11.884-32.692-13.056Z" fill="#6f7958"/><path d="M483.408,336.755l.07-.594-.605-.069c-6.891-.791-13.266,3.893-14.538,10.656-5.082,27.01-16.788,52.898-33.852,74.867-5.549,7.141-11.733,13.942-18.379,20.215l-.439.414,9.286,9.489.439-.415c7.142-6.742,13.786-14.05,19.745-21.722,21.053-27.103,34.288-59.207,38.273-92.842Z" fill="#6f7958"/><path d="M444.111,472.555c8.611-8.016,16.599-16.742,23.742-25.936,24.904-32.059,40.227-70.084,44.311-109.967l.062-.595-.607-.06c-6.915-.68-13.211,4.113-14.316,10.919-5.374,33.153-19.242,64.869-40.103,91.72-6.706,8.633-14.21,16.832-22.305,24.368l-.443.411,9.218,9.551.441-.412Z" fill="#6f7958"/><path d="M411.872,476.281c.728.939,1.448,1.886,2.155,2.842,4.08,5.518,11.876,7.059,17.748,3.509l.519-.314-.319-.509c-2.891-4.613-6.071-9.158-9.451-13.51-7.96-10.246-17.281-19.632-27.711-27.906,10.371-8.234,19.655-17.591,27.601-27.819,17.197-22.139,28.32-48.309,32.165-75.681l.083-.592-.603-.082c-6.836-.929-13.327,3.547-14.789,10.184-4.657,21.108-13.912,40.686-27.51,58.189-8.024,10.328-17.47,19.64-28.078,27.684-3.72-2.483-7.629-4.866-11.634-7.091,3.873-10.535,8.945-20.67,15.081-30.131,3.709-5.718,2.296-13.383-3.218-17.449l-.487-.359-.365.478c-12.902,16.868-22.58,36.491-27.985,56.747-5.979,22.409-7.033,45.214-3.134,67.782l.102.59,13.21-2.202-.101-.589c-3.564-20.629-2.616-41.481,2.818-61.99,16.943,9.841,32.111,23.043,43.9,38.218Z" fill="#6f7958"/><path d="M339.289,557.231c8.364-4.234,18.862-8.325,28.081-10.945,47.999-13.642,89.513-40.318,120.055-77.145,30.682-36.997,49.116-82.858,53.305-132.622l.05-.596-.607-.05c-6.735-.539-12.697,4.192-13.561,10.79-5.826,44.579-23.918,85.448-52.321,118.189-28.471,32.817-66.69,56.749-110.524,69.207-4.126,1.173-18.478,5.528-32.691,13.056v23.274c.005-5.554,3.151-10.595,8.212-13.158Z" fill="#6f7958"/><path d="M421.39,304.011h145.166c4.115,0,7.457,3.341,7.457,7.457v6.771h-152.622v-14.227h0Z" fill="#6f7958"/><path d="M1.909,304.011h156.165v6.771c0,4.115-3.341,7.457-7.457,7.457H1.909v-14.227h0Z" transform="translate(159.983 622.25) rotate(-180)" fill="#6f7958"/><path d="M558.464,270.752c.039-3.48.018-6.84.003-10.362v-2.169h-.008c-.005-2.015-.008-4.089.013-6.316.05-5.391-3.946-4.266-7.127-4.307-2.987-.038-6.445-.675-6.429,4.091.021,5.712.026,10.921.026,16.044-.039,3.48-.018,6.84-.003,10.361,0,.721,0,1.439-.003,2.169h.011c.005,2.014.005,4.088-.013,6.316-.05,5.391,3.946,4.266,7.127,4.307,2.987.038,6.445.675,6.429-4.091-.021-5.712-.026-10.921-.026-16.043Z" fill="#6f7958"/><path d="M527.861,270.752c.039-3.48.018-6.84.003-10.362v-2.169h-.008c-.005-2.015-.008-4.089.013-6.316.05-5.391-3.946-4.266-7.127-4.307-2.987-.038-6.445-.675-6.429,4.091.021,5.712.026,10.921.026,16.044-.039,3.48-.018,6.84-.003,10.361,0,.721,0,1.439-.003,2.169h.011c.005,2.014.005,4.088-.013,6.316-.05,5.391,3.946,4.266,7.127,4.307,2.987.038,6.445.675,6.429-4.091-.021-5.712-.026-10.921-.026-16.043Z" fill="#6f7958"/><path d="M497.259,270.752c.039-3.48.018-6.84.003-10.362v-2.169h-.008c-.005-2.015-.008-4.089.013-6.316.05-5.391-3.946-4.266-7.127-4.307-2.987-.038-6.445-.675-6.429,4.091.021,5.712.026,10.921.026,16.044-.039,3.48-.018,6.84-.003,10.361,0,.721,0,1.439-.003,2.169h.011c.005,2.014.005,4.088-.013,6.316-.05,5.391,3.946,4.266,7.127,4.307,2.987.038,6.445.675,6.429-4.091-.021-5.712-.026-10.921-.026-16.043Z" fill="#6f7958"/><path d="M466.656,270.752c.039-3.48.018-6.84.003-10.362v-2.169h-.008c-.005-2.015-.008-4.089.013-6.316.05-5.391-3.946-4.266-7.127-4.307-2.987-.038-6.445-.675-6.429,4.091.021,5.712.026,10.921.026,16.044-.039,3.48-.018,6.84-.003,10.361,0,.721,0,1.439-.003,2.169h.011c.005,2.014.005,4.088-.013,6.316-.05,5.391,3.946,4.266,7.127,4.307,2.987.038,6.445.675,6.429-4.091-.021-5.712-.026-10.921-.026-16.043Z" fill="#6f7958"/><path d="M436.053,270.752c.039-3.48.018-6.84.003-10.362v-2.169h-.008c-.005-2.015-.008-4.089.013-6.316.05-5.391-3.946-4.266-7.127-4.307-2.987-.038-6.445-.675-6.429,4.091.021,5.712.026,10.921.026,16.044-.039,3.48-.018,6.84-.003,10.361,0,.721,0,1.439-.003,2.169h.011c.005,2.014.005,4.088-.013,6.316-.05,5.391,3.946,4.266,7.127,4.307,2.987.038,6.445.675,6.429-4.091-.021-5.712-.026-10.921-.026-16.043Z" fill="#6f7958"/><path d="M158.056,270.752c.039-3.48.018-6.84.003-10.362v-2.169h-.008c-.005-2.015-.008-4.089.013-6.316.05-5.391-3.946-4.266-7.127-4.307-2.987-.038-6.445-.675-6.429,4.091.021,5.712.026,10.921.026,16.044-.039,3.48-.018,6.84-.003,10.361,0,.721,0,1.439-.003,2.169h.011c.005,2.014.005,4.088-.013,6.316-.05,5.391,3.946,4.266,7.127,4.307,2.987.038,6.445.675,6.429-4.091-.021-5.712-.026-10.921-.026-16.043Z" fill="#6f7958"/><path d="M127.453,270.752c.039-3.48.018-6.84.003-10.362v-2.169h-.008c-.005-2.015-.008-4.089.013-6.316.05-5.391-3.946-4.266-7.127-4.307-2.987-.038-6.445-.675-6.429,4.091.021,5.712.026,10.921.026,16.044-.039,3.48-.018,6.84-.003,10.361,0,.721,0,1.439-.003,2.169h.011c.005,2.014.005,4.088-.013,6.316-.05,5.391,3.946,4.266,7.127,4.307,2.987.038,6.445.675,6.429-4.091-.021-5.712-.026-10.921-.026-16.043Z" fill="#6f7958"/><path d="M96.85,270.752c.039-3.48.018-6.84.003-10.362v-2.169h-.008c-.005-2.015-.008-4.089.013-6.316.05-5.391-3.946-4.266-7.127-4.307-2.987-.038-6.445-.675-6.429,4.091.021,5.712.026,10.921.026,16.044-.039,3.48-.018,6.84-.003,10.361,0,.721,0,1.439-.003,2.169h.011c.005,2.014.005,4.088-.013,6.316-.05,5.391,3.946,4.266,7.127,4.307,2.987.038,6.445.675,6.429-4.091-.021-5.712-.026-10.921-.026-16.043Z" fill="#6f7958"/><path d="M66.247,270.752c.039-3.48.018-6.84.003-10.362v-2.169h-.008c-.005-2.015-.008-4.089.013-6.316.05-5.391-3.946-4.266-7.127-4.307-2.987-.038-6.445-.675-6.429,4.091.021,5.712.026,10.921.026,16.044-.039,3.48-.018,6.84-.003,10.361,0,.721,0,1.439-.003,2.169h.011c.005,2.014.005,4.088-.013,6.316-.05,5.391,3.946,4.266,7.127,4.307,2.987.038,6.445.675,6.429-4.091-.021-5.712-.026-10.921-.026-16.043Z" fill="#6f7958"/><path d="M35.644,270.752c.039-3.48.018-6.84.003-10.362v-2.169h-.008c-.005-2.015-.008-4.089.013-6.316.05-5.391-3.946-4.266-7.127-4.307-2.987-.038-6.445-.675-6.429,4.091.021,5.712.026,10.921.026,16.044-.039,3.48-.018,6.84-.003,10.361,0,.721,0,1.439-.003,2.169h.011c.005,2.014.005,4.088-.013,6.316-.05,5.391,3.946,4.266,7.127,4.307,2.987.038,6.445.675,6.429-4.091-.021-5.712-.026-10.921-.026-16.043Z" fill="#6f7958"/><path d="M102.562,510.759c-46.995-42.983-76.724-100.182-84.589-162.221-.916-7.211-7.342-12.492-14.722-11.944,5.41,70.315,37.426,135.597,90.149,183.825,46.882,42.881,106.362,68.705,169.625,74.099v-13.254c-59.847-5.357-116.083-29.908-160.463-70.505Z" fill="#6f7958"/><path d="M557.981,348.281c-7.81,62.094-37.518,119.355-84.529,162.396-43.456,39.788-98.292,64.143-156.759,70.187v13.308c61.89-6.091,119.965-31.765,165.923-73.84,52.741-48.288,84.731-113.637,90.073-184.011-7.379-.539-13.8,4.748-14.709,11.96Z" fill="#6f7958"/><path d="M291.823,399.651c5.64,19.997,5.692,40.453,5.55,60.984-.235,34.091-.058,90.456-.055,124.548,0,1.509.06,3.021-.025,4.525-.116,2.048.76,4.854-1.423,5.809-3.572,1.563-7.785.755-11.498-.119-.046-3.29-.15-6.582-.15-9.873.003-31.981-.246-86.235.142-118.211.176-14.529-4.811-26.291-15.34-36.366-17.161-16.421-34.076-33.092-50.907-49.841-23.187-23.074-35.76-50.82-37.343-83.285-.087-1.784-.546-3.551-.832-5.326.752-7.192,1.205-14.386.078-21.584.734-1.809.697-3.629.082-5.458.719-4.227.843-8.453-.035-12.675.534-1.216.536-2.429-.018-3.64,1.465-4.954-.565-10.209,1.268-15.129,8.183.457,11.681,3.754,12.656,11.827.829,6.869,1.321,13.8,2.59,20.591,3.259,17.431,12.067,32.041,24.62,44.56,12.051,12.018,24.075,24.066,36.335,35.876,14.7,14.16,25.808,30.504,32.571,49.649.392,1.11,1.147,2.096,1.733,3.139ZM281.877,425.155c1.187-4.084.433-6.411-.042-8.765-4.617-22.85-15.562-42.374-32.177-58.891-9.926-9.868-19.851-19.738-29.928-29.455-8.159-7.868-15.073-16.658-21.227-26.082-1.038-1.59-1.211-4.202-4.164-4.026,0,2.143-.225,4.262.034,6.321,3.265,25.989,13.905,48.555,32.752,67.211,14.273,14.128,28.662,28.144,43.003,42.206,3.641,3.571,7.295,7.129,11.749,11.481Z" fill="#6f7958"/><path d="M316.17,244.313c-.146,4.995-2.941,8.506-6.792,8.532-4.302.028-7.04-4.055-6.872-10.248.152-5.613,1.762-7.703,5.957-7.733,4.869-.035,7.876,3.653,7.706,9.449Z" fill="#c59b6c"/><path d="M288.165,320.344c3.502.137,7.367,5.465,7.05,9.718-.381,5.117-3.133,8.236-7.188,8.148-4.298-.093-7.535-4.467-7.417-10.023.09-4.214,3.729-7.993,7.554-7.843Z" fill="#c59b6c"/><path d="M287.974,361.786c-4.08-.118-7.431-4.401-7.293-9.323.122-4.331,3.709-8.538,7.303-8.563,3.492-.025,7.526,5.364,7.244,9.677-.336,5.142-3.152,8.328-7.255,8.209Z" fill="#c59b6c"/><path d="M287.884,178.732c4.103.21,7.638,4.629,7.372,9.214-.229,3.944-4.266,8.614-7.371,8.526-3.871-.11-7.497-4.865-7.197-9.438.309-4.706,3.586-8.487,7.196-8.302Z" fill="#c59b6c"/><path d="M316.17,267.198c.119,5.366-2.875,9.333-6.968,9.23-3.829-.096-6.577-3.649-6.683-8.643-.114-5.377,2.873-9.333,6.968-9.227,3.843.1,6.571,3.627,6.683,8.64Z" fill="#c59b6c"/><path d="M287.895,202.296c4.08.21,7.628,4.667,7.355,9.239-.238,3.978-4.251,8.618-7.372,8.523-3.892-.119-7.492-4.855-7.183-9.45.318-4.722,3.588-8.498,7.199-8.312Z" fill="#c59b6c"/><path d="M287.506,267.367c-3.538.052-6.785-4.154-6.822-8.839-.035-4.348,3.341-8.633,6.997-8.881,3.171-.215,7.366,4.452,7.573,8.426.215,4.13-4.043,9.239-7.747,9.293Z" fill="#c59b6c"/><path d="M302.526,220.189c.076-5.102,2.808-8.689,6.695-8.788,3.948-.101,7.038,3.708,6.901,8.506-.155,5.434-4,9.672-8.452,9.317-3.311-.264-5.225-3.626-5.144-9.034Z" fill="#c59b6c"/><path d="M316.168,314.835c-.07,5.091-2.82,8.67-6.723,8.745-3.946.077-7-3.71-6.882-8.532.132-5.387,3.444-9.656,7.25-9.344,3.843.314,6.425,4.024,6.355,9.132Z" fill="#c59b6c"/><path d="M295.215,280.659c.138,5.005-3.626,10.116-7.571,10.28-3.487.144-6.754-3.847-6.961-8.502-.204-4.592,3.488-9.273,7.324-9.287,2.895-.011,7.122,4.393,7.208,7.508Z" fill="#c59b6c"/><path d="M302.529,196.396c.115-5.013,2.991-8.605,6.868-8.578,4.179.03,7.019,4.041,6.779,9.576-.202,4.679-2.903,8.178-6.285,8.143-4.298-.044-7.481-3.996-7.362-9.142Z" fill="#c59b6c"/><path d="M238.235,274.603c.064-4.881,3.735-8.952,7.778-8.625,3.094.25,5.934,4.989,5.841,9.747-.085,4.312-2.896,7.78-6.47,7.982-4.145.234-7.22-3.682-7.148-9.104Z" fill="#c59b6c"/><path d="M302.519,291.174c-.036-5.11,2.749-8.989,6.366-8.869,3.864.129,7.258,4.554,7.262,9.471.005,4.687-3.216,8.434-7.077,8.234-3.788-.196-6.517-3.877-6.552-8.837Z" fill="#c59b6c"/><path d="M324.465,250.66c.316-4.774,3.601-8.337,7.325-7.944,3.716.393,6.754,5.364,6.264,10.25-.429,4.282-3.491,7.335-7.186,7.164-4.53-.21-6.794-3.559-6.403-9.47Z" fill="#c59b6c"/><path d="M251.886,227.859c-.084,5.045-2.787,8.571-6.658,8.688-4.117.124-7.108-3.83-6.988-9.238.106-4.832,3.166-8.367,7.08-8.179,3.932.189,6.649,3.802,6.567,8.729Z" fill="#c59b6c"/><path d="M316.187,338.661c-.159,5.001-2.995,8.516-6.86,8.501-4.144-.016-7.01-3.995-6.81-9.453.174-4.743,3.414-8.297,7.277-7.982,3.962.323,6.552,3.942,6.393,8.933Z" fill="#c59b6c"/><path d="M259.312,244.313c.146,4.995,2.941,8.506,6.792,8.532,4.302.028,7.04-4.055,6.872-10.248-.152-5.613-1.762-7.703-5.957-7.733-4.869-.035-7.876,3.653-7.706,9.449Z" fill="#c59b6c"/><path d="M259.312,267.198c-.119,5.366,2.875,9.333,6.968,9.23,3.829-.096,6.577-3.649,6.683-8.643.114-5.377-2.873-9.333-6.968-9.227-3.843.1-6.571,3.627-6.683,8.64Z" fill="#c59b6c"/><path d="M272.956,220.189c-.076-5.102-2.808-8.689-6.695-8.788-3.948-.101-7.038,3.708-6.901,8.506.155,5.434,4,9.672,8.452,9.317,3.311-.264,5.225-3.626,5.144-9.034Z" fill="#c59b6c"/><path d="M259.314,314.835c.07,5.091,2.82,8.67,6.723,8.745,3.946.077,7-3.71,6.882-8.532-.132-5.387-3.444-9.656-7.25-9.344-3.843.314-6.425,4.024-6.355,9.132Z" fill="#c59b6c"/><path d="M272.954,196.396c-.115-5.013-2.991-8.605-6.868-8.578-4.179.03-7.019,4.041-6.779,9.576.202,4.679,2.903,8.178,6.285,8.143,4.298-.044,7.481-3.996,7.362-9.142Z" fill="#c59b6c"/><path d="M272.964,291.174c.036-5.11-2.749-8.989-6.366-8.869-3.864.129-7.258,4.554-7.262,9.471-.005,4.687,3.216,8.434,7.077,8.234,3.788-.196,6.517-3.877,6.552-8.837Z" fill="#c59b6c"/><path d="M259.296,338.661c.159,5.001,2.995,8.516,6.86,8.501,4.144-.016,7.01-3.995,6.81-9.453-.174-4.743-3.414-8.297-7.277-7.982-3.962.323-6.552,3.942-6.393,8.933Z" fill="#c59b6c"/><path d="M251.887,298.045c.119,5.031-2.481,8.863-6.274,9.244-3.883.391-7.283-3.33-7.361-8.054-.077-4.698,2.916-9.069,6.424-9.378,3.817-.337,7.097,3.388,7.21,8.188Z" fill="#c59b6c"/><path d="M324.465,228.326c-.036-5.238,2.42-9.276,5.778-9.497,3.292-.217,7.832,5.097,7.765,9.088-.076,4.536-3.341,8.656-6.857,8.655-4.24-.001-6.651-2.974-6.687-8.247Z" fill="#c59b6c"/><path d="M251.898,251.94c-.248,4.958-3.369,8.485-7.247,8.192-3.889-.294-6.708-4.34-6.34-9.099.376-4.865,3.762-8.699,7.353-8.325,3.964.412,6.488,4.151,6.234,9.232Z" fill="#c59b6c"/><path d="M216.74,258.868c.06-4.53,3.466-8.307,7.218-8.004,2.872.232,5.507,4.63,5.42,9.046-.079,4.002-2.688,7.22-6.005,7.407-3.847.217-6.7-3.417-6.633-8.449Z" fill="#c59b6c"/><path d="M229.41,280.623c.111,4.669-2.302,8.225-5.822,8.579-3.603.363-6.759-3.091-6.831-7.475-.071-4.36,2.707-8.416,5.962-8.703,3.542-.313,6.586,3.144,6.692,7.599Z" fill="#c59b6c"/><path d="M229.42,237.835c-.23,4.601-3.126,7.875-6.725,7.602-3.609-.273-6.225-4.028-5.883-8.444.349-4.515,3.491-8.073,6.823-7.726,3.679.383,6.021,3.852,5.786,8.568Z" fill="#c59b6c"/><path d="M359.454,258.868c-.06-4.53-3.466-8.307-7.218-8.004-2.872.232-5.507,4.63-5.42,9.046.079,4.002,2.688,7.22,6.005,7.407,3.847.217,6.7-3.417,6.633-8.449Z" fill="#c59b6c"/><path d="M346.785,280.623c-.111,4.669,2.302,8.225,5.822,8.579,3.603.363,6.759-3.091,6.831-7.475.071-4.36-2.707-8.416-5.962-8.703-3.542-.313-6.586,3.144-6.692,7.599Z" fill="#c59b6c"/><path d="M346.775,237.835c.23,4.601,3.126,7.875,6.725,7.602,3.609-.273,6.225-4.028,5.883-8.444-.349-4.515-3.491-8.073-6.823-7.726-3.679.383-6.021,3.852-5.786,8.568Z" fill="#c59b6c"/><path d="M294.211,305.62c-.006,4.977-2.627,8.609-6.413,8.888-3.763.277-7.265-4.267-7.107-9.219.137-4.294,3.599-8.392,7.173-8.491,3.574-.1,6.354,3.765,6.348,8.822Z" fill="#c59b6c"/><path d="M331.171,266.309c3.068.101,6.978,5.215,6.835,8.938-.178,4.628-3.523,8.647-7.039,8.458-4.088-.22-6.811-4.309-6.487-9.743.255-4.28,3.302-7.765,6.691-7.654Z" fill="#c59b6c"/><path d="M294.217,235.187c-.101,4.53-2.783,8.376-5.909,8.472-3.314.102-7.769-5.332-7.613-9.283.166-4.189,3.903-8.405,7.389-8.334,3.501.071,6.244,4.161,6.133,9.145Z" fill="#c59b6c"/><path d="M324.467,299.032c-.004-5.583,1.634-7.867,5.769-8.042,4.319-.183,7.754,3.148,7.756,7.521.002,4.557-3.243,8.756-6.789,8.783-4.278.033-6.733-2.977-6.737-8.262Z" fill="#c59b6c"/></g></g></g></g></svg>